<?xml version="1.0" encoding="utf-8"?>
<!-- Generator: Adobe Illustrator 20.1.0, SVG Export Plug-In . SVG Version: 6.00 Build 0)  -->
<svg version="1.1" id="Layer_1" xmlns="http://www.w3.org/2000/svg" xmlns:xlink="http://www.w3.org/1999/xlink" x="0px" y="0px"
	 viewBox="0 0 32 32" style="enable-background:new 0 0 32 32;" xml:space="preserve">
<style type="text/css">
	.st0{fill:#FFFFFF;}
</style>
<g>
	<path class="st0" d="M32,32V0c-1.063,0-0.7,0-1.5,0h-29C0.7,0,1.235,0,0,0v10.5h1l0,0V1c0-0.3-0.3,0,0,0h30.071
		C31.371,1,31,0.7,31,1v30.086c0,0.3,0.433-0.086,0.133-0.086H21.5c0,0,0,0.2,0,0.5s0,0.5,0,0.5h9C31.3,32,31.329,32,32,32z"/>
	<path class="st0" d="M0,13c0,1,0,0.7,0,1.5v16c0,0.8,0,1.112,0,1.5h17.5c0.8,0,0.594,0,1.5,0V13.7l7-7v6.8l0,0h1V5
		c-0.324,0-0.2,0-0.5,0h-8v1l0,0h6.8l-7,7H0z M18,30.984c0,0.3,0.3,0.016,0,0.016H1c-0.3,0,0,0.3,0,0V14.5c0-0.3,0,0,0-0.5h17
		V30.984z"/>
</g>
<g>
	<path class="st0" d="M4.066,25.531c-0.404,0-0.77-0.069-1.098-0.207s-0.608-0.331-0.84-0.58s-0.412-0.546-0.539-0.893
		s-0.191-0.729-0.191-1.148c0-0.448,0.064-0.854,0.193-1.219s0.313-0.676,0.551-0.934s0.528-0.457,0.869-0.598
		s0.723-0.211,1.145-0.211c0.391,0,0.748,0.069,1.07,0.207s0.599,0.331,0.828,0.58s0.407,0.546,0.533,0.893s0.189,0.728,0.189,1.145
		c0,0.552-0.092,1.036-0.277,1.451s-0.445,0.749-0.781,1.002l1.625,1.172H5.929l-1-0.777C4.796,25.45,4.658,25.479,4.515,25.5
		S4.222,25.531,4.066,25.531z M4.109,20.559c-0.255,0-0.489,0.05-0.701,0.15s-0.395,0.242-0.549,0.426s-0.273,0.403-0.357,0.658
		s-0.127,0.539-0.127,0.852c0,0.31,0.041,0.593,0.123,0.848s0.197,0.474,0.346,0.654s0.327,0.321,0.535,0.422s0.439,0.15,0.691,0.15
		c0.268,0,0.509-0.047,0.723-0.141s0.395-0.229,0.545-0.404s0.265-0.392,0.346-0.646s0.121-0.546,0.121-0.871
		c0-0.333-0.039-0.63-0.117-0.891s-0.19-0.479-0.336-0.658s-0.324-0.314-0.533-0.408S4.372,20.559,4.109,20.559z"/>
	<path class="st0" d="M11.904,25.438h-0.934v-2.43H8.334v2.43h-0.93v-5.602h0.93v2.355h2.637v-2.355h0.934V25.438z"/>
	<path class="st0" d="M12.887,25.438v-5.602h1.617c2.065,0,3.097,0.91,3.097,2.73c0,0.864-0.286,1.56-0.859,2.084
		s-1.341,0.787-2.305,0.787H12.887z M13.813,20.625v4.027h0.742c0.654,0,1.162-0.18,1.525-0.539s0.545-0.867,0.545-1.523
		c0-1.31-0.678-1.965-2.035-1.965H13.813z"/>
</g>
</svg>
