<?xml version="1.0" encoding="utf-8"?>
<!-- Generator: Adobe Illustrator 17.0.2, SVG Export Plug-In . SVG Version: 6.00 Build 0)  -->
<!DOCTYPE svg PUBLIC "-//W3C//DTD SVG 1.1//EN" "http://www.w3.org/Graphics/SVG/1.1/DTD/svg11.dtd">
<svg version="1.1" id="Layer_1" xmlns="http://www.w3.org/2000/svg" xmlns:xlink="http://www.w3.org/1999/xlink" x="0px" y="0px"
	 width="27.017px" height="27.017px" viewBox="0 0 27.017 27.017" style="enable-background:new 0 0 27.017 27.017;"
	 xml:space="preserve">
<g id="Add_-_Line.svg">
	<g>
		<path style="fill-rule:evenodd;clip-rule:evenodd;fill:#ffffff;" d="M13.509,0C6.06,0,0,6.06,0,13.508s6.06,13.508,13.509,13.508
			c7.449,0,13.508-6.06,13.508-13.508S20.958,0,13.509,0z M13.509,26.026c-6.903,0-12.518-5.615-12.518-12.517
			c0-6.902,5.615-12.517,12.518-12.517c6.902,0,12.516,5.615,12.516,12.517C26.026,20.41,20.411,26.026,13.509,26.026z
			 M14.005,6.885h-0.992v6.128H6.885v0.991h6.128v6.128h0.992v-6.128h6.127v-0.991h-6.127V6.885z"/>
	</g>
</g>
<g>
</g>
<g>
</g>
<g>
</g>
<g>
</g>
<g>
</g>
<g>
</g>
<g>
</g>
<g>
</g>
<g>
</g>
<g>
</g>
<g>
</g>
<g>
</g>
<g>
</g>
<g>
</g>
<g>
</g>
</svg>
