<?xml version="1.0" encoding="utf-8"?>
<!-- Generator: Adobe Illustrator 20.1.0, SVG Export Plug-In . SVG Version: 6.00 Build 0)  -->
<svg version="1.1" id="Layer_1" xmlns="http://www.w3.org/2000/svg" xmlns:xlink="http://www.w3.org/1999/xlink" x="0px" y="0px"
	 viewBox="0 0 29.062 27.378" style="enable-background:new 0 0 29.062 27.378;" xml:space="preserve">
<style type="text/css">
	.st0{enable-background:new    ;}
	.st1{fill:#FFFFFF;}
	.st2{fill:none;stroke:#FFFFFF;stroke-linejoin:bevel;stroke-miterlimit:10;}
</style>
<g class="st0">
	<path class="st1" d="M16.479,27.124h-0.944c0.236-0.659,0.592-1.38,1.065-2.162c0.474-0.783,1.03-1.564,1.67-2.346h-2.523
		l0.161-0.744h3.501l-0.105,0.51c-0.789,1.016-1.4,1.896-1.834,2.644C17.036,25.772,16.706,26.472,16.479,27.124z"/>
	<path class="st1" d="M20.829,23.897c0.498,0,0.886,0.125,1.163,0.374s0.415,0.596,0.415,1.04c0,0.358-0.093,0.688-0.28,0.99
		s-0.443,0.529-0.772,0.684c-0.328,0.153-0.708,0.23-1.141,0.23c-0.225,0-0.458-0.021-0.701-0.063s-0.429-0.098-0.555-0.168
		l0.168-0.762c0.125,0.083,0.294,0.152,0.507,0.208c0.215,0.057,0.412,0.085,0.596,0.085c0.271,0,0.503-0.049,0.695-0.146
		c0.193-0.096,0.341-0.226,0.443-0.39c0.103-0.163,0.154-0.347,0.154-0.549c0-0.269-0.082-0.475-0.246-0.617
		c-0.163-0.144-0.432-0.215-0.805-0.215c-0.332,0-0.635,0.018-0.908,0.052l0.685-2.78h2.673l-0.157,0.744h-1.919l-0.33,1.296
		L20.829,23.897z"/>
	<path class="st1" d="M25.904,22.895c0,0.298-0.066,0.576-0.199,0.835s-0.309,0.456-0.525,0.591
		c-0.217,0.136-0.457,0.204-0.718,0.204c-0.241,0-0.444-0.048-0.61-0.142c-0.164-0.094-0.291-0.226-0.379-0.394
		s-0.131-0.361-0.131-0.578c0-0.281,0.065-0.551,0.197-0.81s0.308-0.457,0.527-0.596c0.22-0.138,0.467-0.206,0.743-0.206
		c0.339,0,0.606,0.098,0.802,0.293S25.904,22.555,25.904,22.895z M24.121,27.124H23.4l4.519-5.252h0.722L24.121,27.124z
		 M25.264,22.913c0-0.191-0.043-0.338-0.13-0.439c-0.087-0.104-0.202-0.154-0.346-0.154c-0.151,0-0.288,0.051-0.409,0.152
		c-0.12,0.101-0.217,0.238-0.289,0.412c-0.072,0.173-0.107,0.35-0.107,0.53s0.045,0.324,0.135,0.431
		c0.091,0.106,0.213,0.159,0.367,0.159c0.144,0,0.275-0.051,0.396-0.152s0.215-0.235,0.282-0.402S25.264,23.103,25.264,22.913z
		 M28.717,25.571c0,0.281-0.061,0.548-0.185,0.802c-0.123,0.254-0.294,0.455-0.513,0.603s-0.466,0.222-0.741,0.222
		c-0.242,0-0.446-0.048-0.612-0.143c-0.166-0.096-0.293-0.228-0.381-0.397s-0.131-0.358-0.131-0.566c0-0.285,0.067-0.56,0.203-0.821
		c0.135-0.263,0.313-0.461,0.532-0.596c0.22-0.134,0.464-0.201,0.732-0.201c0.345,0,0.612,0.099,0.806,0.297
		C28.621,24.967,28.717,25.234,28.717,25.571z M28.076,25.586c0-0.181-0.041-0.324-0.124-0.431c-0.083-0.105-0.2-0.159-0.352-0.159
		s-0.288,0.052-0.41,0.154s-0.219,0.241-0.29,0.417c-0.07,0.176-0.105,0.352-0.105,0.527s0.044,0.317,0.132,0.423
		s0.211,0.159,0.37,0.159c0.219,0,0.404-0.106,0.555-0.322C28.002,26.141,28.076,25.884,28.076,25.586z"/>
</g>
<polygon class="st2" points="0.875,15.511 9.368,24.004 19.521,13.851 22.254,13.461 12.614,3.723 "/>
<path class="st2" d="M12.573,10.967v-8.2c0-1.079-0.874-1.952-1.952-1.952S8.668,1.689,8.668,2.767v5.076"/>
</svg>
