<?xml version="1.0" encoding="utf-8"?>
<!-- Generator: Adobe Illustrator 20.1.0, SVG Export Plug-In . SVG Version: 6.00 Build 0)  -->
<svg version="1.1" id="Layer_1" xmlns="http://www.w3.org/2000/svg" xmlns:xlink="http://www.w3.org/1999/xlink" x="0px" y="0px"
	 viewBox="0 0 30.003 29.018" style="enable-background:new 0 0 30.003 29.018;" xml:space="preserve">
<style type="text/css">
	.st0{fill:#FFFFFF;}
</style>
<g id="Layers.svg">
	<g>
		<path class="st0" d="M30.003,0L6.752,0v23.077h23.251V0z M29.005,22.086l-21.255,0V0.991h21.255V22.086z M23.25,29.018v-4.303
			h-0.998v3.312H0.998V6.932h4.335V5.941H0l0,23.077H23.25z"/>
	</g>
</g>
<g>
	<path class="st0" d="M23.223,17.028h-1.2l-1.28-3.584h-4.88l-1.312,3.584h-1.152l4.289-11.536h1.264L23.223,17.028z M16.214,12.468
		h4.177l-1.12-3.12c-0.075-0.192-0.145-0.378-0.208-0.56c-0.064-0.181-0.134-0.381-0.208-0.6c-0.075-0.219-0.155-0.464-0.24-0.736
		c-0.086-0.272-0.187-0.594-0.304-0.968c-0.107,0.374-0.203,0.696-0.288,0.968c-0.086,0.272-0.166,0.518-0.24,0.736
		c-0.075,0.219-0.145,0.418-0.208,0.6c-0.064,0.182-0.134,0.368-0.208,0.56L16.214,12.468z"/>
</g>
</svg>
