<?xml version="1.0" encoding="utf-8"?>
<!-- Generator: Adobe Illustrator 20.1.0, SVG Export Plug-In . SVG Version: 6.00 Build 0)  -->
<svg version="1.0" id="Layer_1" xmlns="http://www.w3.org/2000/svg" xmlns:xlink="http://www.w3.org/1999/xlink" x="0px" y="0px"
	 viewBox="0 0 29.0620003 27.3780003" style="enable-background:new 0 0 29.0620003 27.3780003;" xml:space="preserve">
<style type="text/css">
	.st0{fill:#ffffff;}
</style>
<g id="Paintbrush.svg">
	<g>
		<path class="st0" d="M28.9109993,0.269l-0.1509991,0.016c-0.6679993-0.155-4.5160007-0.931-7.5189991,0.997
			c-2.2210007,1.426-2.7520008,3.52-2.8579998,4.789l-3.1689997,3.1020002C-0.919,26.1599998-0.274,26.7910004,0.153,27.2080002
			l0.224,0.1700001h0.209c1.299,0,10.4709997-8.0769997,17.9370003-14.8509998l2.8789997-2.8140001
			C22.0430012,9.71,26.0390015,9.4990005,26.8880005,4.7250004c0.3920002-3.062,2.1079998-3.4660001,2.1749992-3.4809999
			L28.9109993,0.269z M1.725,25.6720009c1.864-2.4589996,7.0800004-8.2779999,13.8719997-15.4499998l1.9150009,1.8730001
			C11.1730003,17.8490009,4.48,23.6690006,1.725,25.6720009z M18.2399998,11.4099998l-1.9429989-1.8999996l2.4389992-2.3870001
			l0.0629997-0.0079999l1.9160004,1.8740001L18.2399998,11.4099998z M25.8899994,4.579
			c-0.6040001,3.395-3.0039997,4.0089993-4.0440006,4.1199994l-2.4680004-2.415c0.0610008-1.04,0.4589996-2.9189999,2.4169998-4.177
			c1.9029999-1.222,4.2840004-1.192,5.6630001-1.036C26.8050003,1.683,26.1229992,2.7449999,25.8899994,4.579z"/>
	</g>
</g>
<g>
	<path class="st0" d="M22.5810547,23.3720703c0,0.703125-0.1083984,1.3603516-0.3242188,1.9716797
		s-0.5039063,1.0732422-0.8623047,1.3847656c-0.359375,0.3105469-0.765625,0.4667969-1.2197266,0.4667969
		c-0.4443359,0-0.796875-0.1572266-1.0566406-0.4707031s-0.3896484-0.7470703-0.3896484-1.2988281
		c0-0.6464844,0.1083984-1.2607422,0.3261719-1.84375C19.2714844,23,19.5634766,22.5517578,19.9316406,22.2363281
		c0.3671875-0.3144531,0.7832031-0.4726563,1.2470703-0.4726563c0.4345703,0,0.7763672,0.1425781,1.0273438,0.4267578
		C22.4560547,22.4746094,22.5810547,22.8691406,22.5810547,23.3720703z M21.7089844,23.375
		c0-0.2978516-0.0517578-0.5244141-0.1552734-0.6806641s-0.2509766-0.234375-0.4414063-0.234375
		c-0.2607422,0-0.4990234,0.1289063-0.7119141,0.3876953C20.1865234,23.1064453,20,23.5039063,19.8417969,24.0380859
		c-0.1591797,0.5351563-0.2382813,1.0205078-0.2382813,1.4580078c0,0.3095703,0.0566406,0.5537109,0.1689453,0.7304688
		s0.2705078,0.265625,0.4755859,0.265625c0.2763672,0,0.515625-0.1445313,0.7197266-0.4345703
		c0.2041016-0.2890625,0.3779297-0.6933594,0.5234375-1.2119141S21.7089844,23.8369141,21.7089844,23.375z"/>
	<path class="st0" d="M25.8447266,22.8740234c0,0.2978516-0.0673828,0.5761719-0.2001953,0.8349609
		s-0.3076172,0.4560547-0.5253906,0.5908203c-0.2167969,0.1357422-0.4560547,0.203125-0.7177734,0.203125
		c-0.2412109,0-0.4453125-0.046875-0.609375-0.140625c-0.1650391-0.09375-0.2910156-0.2255859-0.3789063-0.3935547
		c-0.0878906-0.1689453-0.1318359-0.3613281-0.1318359-0.5791016c0-0.2802734,0.0654297-0.5498047,0.1972656-0.8085938
		s0.3076172-0.4580078,0.5273438-0.5957031s0.4677734-0.2070313,0.7431641-0.2070313
		c0.3398438,0,0.6074219,0.0976563,0.8027344,0.2929688S25.8447266,22.5341797,25.8447266,22.8740234z M24.0605469,27.1035156
		h-0.7207031l4.5185547-5.2519531h0.7216797L24.0605469,27.1035156z M25.203125,22.8916016
		c0-0.1904297-0.0429688-0.3369141-0.1298828-0.4394531s-0.2021484-0.1533203-0.3457031-0.1533203
		c-0.1513672,0-0.2880859,0.0507813-0.4082031,0.1513672c-0.1210938,0.1015625-0.2177734,0.2392578-0.2900391,0.4121094
		c-0.0712891,0.1738281-0.1074219,0.3505859-0.1074219,0.53125s0.0449219,0.3242188,0.1357422,0.4306641
		c0.0898438,0.1064453,0.2119141,0.1591797,0.3662109,0.1591797c0.1435547,0,0.2763672-0.0507813,0.3964844-0.1523438
		c0.1210938-0.1005859,0.2148438-0.2353516,0.2822266-0.4023438S25.203125,23.0820313,25.203125,22.8916016z M28.6572266,25.5507813
		c0,0.2802734-0.0615234,0.5478516-0.1855469,0.8017578c-0.1230469,0.2539063-0.2939453,0.4550781-0.5126953,0.6025391
		c-0.2177734,0.1474609-0.4658203,0.2216797-0.7412109,0.2216797c-0.2421875,0-0.4453125-0.0478516-0.6113281-0.1425781
		c-0.1660156-0.0957031-0.2929688-0.2275391-0.3808594-0.3974609S26.09375,26.2783203,26.09375,26.0703125
		c0-0.2851563,0.0673828-0.5595703,0.203125-0.8212891c0.1357422-0.2626953,0.3125-0.4609375,0.5322266-0.5957031
		c0.2197266-0.1337891,0.4638672-0.2011719,0.7324219-0.2011719c0.3447266,0,0.6132813,0.0986328,0.8056641,0.296875
		C28.5605469,24.9462891,28.6572266,25.2138672,28.6572266,25.5507813z M28.015625,25.5654297
		c0-0.1806641-0.0410156-0.3242188-0.1240234-0.4306641c-0.0830078-0.1054688-0.2001953-0.1591797-0.3515625-0.1591797
		s-0.2880859,0.0517578-0.4101563,0.1542969s-0.21875,0.2412109-0.2890625,0.4169922
		c-0.0712891,0.1757813-0.1064453,0.3515625-0.1064453,0.5273438s0.0439453,0.3173828,0.1318359,0.4228516
		c0.0878906,0.1064453,0.2109375,0.1591797,0.3701172,0.1591797c0.2197266,0,0.4042969-0.1074219,0.5546875-0.3222656
		C27.9414063,26.1201172,28.015625,25.8632813,28.015625,25.5654297z"/>
</g>
</svg>
