<?xml version="1.0" encoding="utf-8"?>
<!-- Generator: Adobe Illustrator 20.1.0, SVG Export Plug-In . SVG Version: 6.00 Build 0)  -->
<svg version="1.0" id="Layer_1" xmlns="http://www.w3.org/2000/svg" xmlns:xlink="http://www.w3.org/1999/xlink" x="0px" y="0px"
	 viewBox="0 0 29.0620003 27.3780003" style="enable-background:new 0 0 29.0620003 27.3780003;" xml:space="preserve">
<style type="text/css">
	.st0{fill:#ffffff;}
</style>
<g id="Paintbrush.svg">
	<g>
		<path class="st0" d="M28.9109993,0.269l-0.1509991,0.016c-0.6679993-0.155-4.5160007-0.931-7.5189991,0.997
			c-2.2210007,1.426-2.7520008,3.52-2.8579998,4.789l-3.1689997,3.1020002C-0.919,26.1599998-0.274,26.7910004,0.153,27.2080002
			l0.224,0.1700001h0.209c1.299,0,10.4709997-8.0769997,17.9370003-14.8509998l2.8789997-2.8140001
			C22.0430012,9.71,26.0390015,9.4990005,26.8880005,4.7250004c0.3920002-3.062,2.1079998-3.4660001,2.1749992-3.4809999
			L28.9109993,0.269z M1.725,25.6720009c1.864-2.4589996,7.0800004-8.2779999,13.8719997-15.4499998l1.9150009,1.8730001
			C11.1730003,17.8490009,4.48,23.6690006,1.725,25.6720009z M18.2399998,11.4099998l-1.9429989-1.8999996l2.4389992-2.3870001
			l0.0629997-0.0079999l1.9160004,1.8740001L18.2399998,11.4099998z M25.8899994,4.579
			c-0.6040001,3.395-3.0039997,4.0089993-4.0440006,4.1199994l-2.4680004-2.415c0.0610008-1.04,0.4589996-2.9189999,2.4169998-4.177
			c1.9029999-1.222,4.2840004-1.192,5.6630001-1.036C26.8050003,1.683,26.1229992,2.7449999,25.8899994,4.579z"/>
	</g>
</g>
<g>
	<path class="st0" d="M18.4384766,27.1035156h-0.8339844l0.7070313-3.3330078
		c0.0683594-0.3076172,0.1601563-0.6689453,0.2773438-1.0839844h-0.0214844
		c-0.125,0.2763672-0.3203125,0.5927734-0.5898438,0.9492188l-1.4863281,1.9951172h-0.5649414l-0.6005859-1.9296875
		c-0.0439453-0.1337891-0.0839844-0.2988281-0.1206055-0.4941406s-0.0576172-0.3691406-0.0625-0.5205078h-0.0253906
		c-0.0854492,0.5400391-0.1489258,0.9023438-0.1904297,1.0878906l-0.7104492,3.3291016h-0.8276367l1.1132813-5.2519531h1.0693359
		l0.6855469,2.1611328c0.0722656,0.2314453,0.1152344,0.4501953,0.1269531,0.6552734h0.0195313
		c0.1347656-0.2929688,0.2714844-0.5341797,0.4140625-0.7246094l1.5703125-2.0917969h1.1679688L18.4384766,27.1035156z"/>
	<path class="st0" d="M21.6992188,27.1035156h-0.9121094l0.4101563-1.9296875l-0.9628906-3.3222656h0.9736328l0.5351563,2.2089844
		l0.0361328,0.1972656l0.0185547,0.1689453H21.8125c0.0751953-0.1660156,0.1376953-0.2851563,0.1865234-0.3554688
		l1.5126953-2.2197266h1.0175781l-2.4238281,3.3037109L21.6992188,27.1035156z"/>
	<path class="st0" d="M26.7636719,27.1035156l0.9335938-4.3798828l-1.2304688,0.296875l0.1650391-0.7587891l2.1464844-0.4980469
		l-1.1279297,5.3398438H26.7636719z"/>
</g>
</svg>
