<?xml version="1.0" encoding="utf-8"?>
<!-- Generator: Adobe Illustrator 20.1.0, SVG Export Plug-In . SVG Version: 6.00 Build 0)  -->
<svg version="1.1" id="Layer_1" xmlns="http://www.w3.org/2000/svg" xmlns:xlink="http://www.w3.org/1999/xlink" x="0px" y="0px"
	 viewBox="0 0 32 32" style="enable-background:new 0 0 32 32;" xml:space="preserve">
<style type="text/css">
	.st0{fill:#FFFFFF;}
</style>
<g>
	<path class="st0" d="M32,32V0c-1.063,0-0.7,0-1.5,0h-29C0.7,0,1.235,0,0,0v10.5h1l0,0V1c0-0.3-0.3,0,0,0h30.071
		C31.371,1,31,0.7,31,1v30.086c0,0.3,0.433-0.086,0.133-0.086H21.5c0,0,0,0.2,0,0.5s0,0.5,0,0.5h9C31.3,32,31.329,32,32,32z"/>
	<path class="st0" d="M0,13c0,1,0,0.7,0,1.5v16c0,0.8,0,1.112,0,1.5h17.5c0.8,0,0.594,0,1.5,0V13.7l7-7v6.8l0,0h1V5
		c-0.324,0-0.2,0-0.5,0h-8v1l0,0h6.8l-7,7H0z M18,30.984c0,0.3,0.3,0.016,0,0.016H1c-0.3,0,0,0.3,0,0V14.5c0-0.3,0,0,0-0.5h17
		V30.984z"/>
</g>
<g>
	<path class="st0" d="M9.081,25.438H8.147v-2.43H5.511v2.43h-0.93v-5.602h0.93v2.355h2.637v-2.355h0.934V25.438z"/>
	<path class="st0" d="M10.064,25.438v-5.602h1.617c2.065,0,3.098,0.91,3.098,2.73c0,0.864-0.287,1.56-0.859,2.084
		s-1.341,0.787-2.305,0.787H10.064z M10.99,20.625v4.027h0.742c0.654,0,1.162-0.18,1.525-0.539s0.545-0.867,0.545-1.523
		c0-1.31-0.678-1.965-2.035-1.965H10.99z"/>
</g>
</svg>
