<?xml version="1.0" encoding="utf-8"?>
<!-- Generator: Adobe Illustrator 20.1.0, SVG Export Plug-In . SVG Version: 6.00 Build 0)  -->
<svg version="1.1" id="Layer_1" xmlns="http://www.w3.org/2000/svg" xmlns:xlink="http://www.w3.org/1999/xlink" x="0px" y="0px"
	 viewBox="0 0 30.003 29.018" style="enable-background:new 0 0 30.003 29.018;" xml:space="preserve">
<style type="text/css">
	.st0{fill:#FFFFFF;}
</style>
<g id="Layers.svg">
	<g>
		<path class="st0" d="M0,29.018h23.251V5.941H0V29.018z M0.998,6.932h21.255v21.095H0.998V6.932z M6.753,0v4.303h0.998V0.991
			h21.254v21.095H24.67v0.991h5.333V0H6.753z"/>
	</g>
</g>
<g>
	<path class="st0" d="M5.013,20.772c0.821-0.47,1.525-0.891,2.112-1.264c0.586-0.374,1.08-0.723,1.48-1.049
		c0.4-0.325,0.723-0.632,0.968-0.92c0.246-0.288,0.432-0.578,0.56-0.872c0.128-0.293,0.213-0.604,0.256-0.936
		c0.042-0.33,0.064-0.693,0.064-1.088v-1.808h-5.28v-1.024h6.384v2.848c0,0.726-0.067,1.357-0.2,1.896
		c-0.133,0.538-0.408,1.062-0.824,1.567c-0.416,0.507-1.016,1.038-1.8,1.593c-0.784,0.554-1.827,1.21-3.128,1.968L5.013,20.772z
		 M15.877,16.005h2.432v1.008h-2.432v8.031H14.74V10.42h1.137V16.005z"/>
</g>
</svg>
