<?xml version="1.0" encoding="utf-8"?>
<!-- Generator: Adobe Illustrator 20.1.0, SVG Export Plug-In . SVG Version: 6.00 Build 0)  -->
<svg version="1.0" id="Layer_1" xmlns="http://www.w3.org/2000/svg" xmlns:xlink="http://www.w3.org/1999/xlink" x="0px" y="0px"
	 viewBox="0 0 19.3125 9.0453663" style="enable-background:new 0 0 19.3125 9.0453663;" xml:space="preserve">
<style type="text/css">
	.st0{fill:#ffffff;}
</style>
<g>
	<path class="st0" d="M0.2981771,8.7098579V0.3080021h2.2089844c1.4375,0,2.5234377,0.3447265,3.2578127,1.0341797
		s1.1015625,1.7080079,1.1015625,3.0556641c0,0.6484375-0.1025391,1.237793-0.3076172,1.769043
		S6.0579429,7.1522403,5.6712241,7.5291934s-0.8554688,0.6679692-1.40625,0.8730474S3.0930989,8.7098579,2.4016926,8.7098579
		H0.2981771z M1.077474,1.0228459v6.9780278h1.2890624c0.578125,0,1.0947266-0.0781255,1.5498047-0.2343755
		s0.8408206-0.3857422,1.1572268-0.6884766s0.5576172-0.6767578,0.7236328-1.1220703s0.2490234-0.956543,0.2490234-1.534668
		c0-2.2656248-1.1972656-3.3984375-3.5917971-3.3984375H1.077474z"/>
	<path class="st0" d="M9.0271807,5.4403262v3.2695317H8.2483721V0.3080021h2.1679688
		c0.4414063,0,0.8320313,0.0546875,1.171875,0.1640625S12.215169,0.7396427,12.449544,0.946674
		s0.4121094,0.4609375,0.5332031,0.7617188s0.1816406,0.6445314,0.1816406,1.0312501
		c0,0.390625-0.0683594,0.7509766-0.2050781,1.0810547s-0.3320313,0.6152341-0.5878906,0.8554685
		s-0.5683594,0.4277344-0.9355469,0.5620117c-0.3671875,0.1347656-0.7832031,0.2021484-1.2485352,0.2021484H9.0271807z
		 M9.0271807,1.0228459v3.703125h1.1132813c0.7231445,0,1.2719727-0.1679688,1.6469727-0.5039063s0.5625-0.8105466,0.5625-1.4238279
		c0-1.1835939-0.6914063-1.7753907-2.0742188-1.7753907H9.0271807z"/>
	<path class="st0" d="M14.2415361,7.4793887c0.140625,0.1054688,0.2958984,0.2001953,0.4658203,0.2841797
		s0.34375,0.1542969,0.5214844,0.2109375c0.1777344,0.0566411,0.3564453,0.0996099,0.5361328,0.1289067
		s0.3515635,0.0439453,0.515626,0.0439453c0.6367188,0,1.1132813-0.1230469,1.4296875-0.3691411
		c0.3164063-0.2460938,0.4746094-0.5996094,0.4746094-1.0605469c0-0.2226563-0.0371094-0.4169922-0.1113281-0.5830078
		s-0.1894531-0.3212891-0.3457031-0.4658203s-0.3535156-0.2880859-0.5917969-0.4306641
		c-0.2382813-0.1420898-0.5195313-0.3032227-0.84375-0.4829102c-0.359376-0.1953125-0.6669931-0.3798828-0.9228525-0.5537109
		s-0.4648438-0.3515623-0.6269531-0.5332029s-0.28125-0.3779297-0.3574219-0.5888672S14.270833,2.6283147,14.270833,2.3587835
		c0-0.3398438,0.0722656-0.6445314,0.2167969-0.9140626s0.3398438-0.4990234,0.5859375-0.6884766
		s0.5341797-0.3349609,0.8642578-0.4365234c0.3300791-0.1015625,0.6826181-0.1523438,1.0576181-0.1523438
		c0.6601563,0,1.2128906,0.0917969,1.6582031,0.2753906v0.8613281c-0.4960938-0.2851563-1.078125-0.4277344-1.7460938-0.4277344
		c-0.25,0-0.4853516,0.0302734-0.7060547,0.0908203c-0.2207041,0.0605469-0.4140635,0.1494141-0.5800791,0.2666016
		s-0.296875,0.2626953-0.3925781,0.4365234s-0.1435547,0.3759767-0.1435547,0.6064454
		c0,0.21875,0.0322266,0.4072266,0.0966797,0.5654297s0.1679688,0.3076172,0.3105469,0.4482422
		s0.3300781,0.2802734,0.562501,0.4189453c0.2324219,0.1386719,0.5166016,0.2978513,0.8525391,0.4775388
		c0.3515625,0.1875,0.6582031,0.3701172,0.9199219,0.5478516s0.4794922,0.3632813,0.6533203,0.5561523
		c0.1738281,0.1933594,0.3037109,0.3984375,0.3896484,0.6152344s0.1289063,0.4580078,0.1289063,0.7236328
		c0,0.3671875-0.0683594,0.6904297-0.2050781,0.9697266s-0.328125,0.5107427-0.5742188,0.6943364
		s-0.5390625,0.3222656-0.8789063,0.4160156s-0.7128906,0.140625-1.1191406,0.140625
		c-0.1328125,0-0.2910166-0.0107422-0.4746103-0.0322266s-0.3691406-0.0527344-0.5566406-0.09375
		S14.824544,8.6346626,14.6546221,8.578022s-0.3076172-0.1181641-0.4130859-0.1845703V7.4793887z"/>
</g>
</svg>
