<?xml version="1.0" encoding="utf-8"?>
<!-- Generator: Adobe Illustrator 20.1.0, SVG Export Plug-In . SVG Version: 6.00 Build 0)  -->
<svg version="1.1" id="Layer_1" xmlns="http://www.w3.org/2000/svg" xmlns:xlink="http://www.w3.org/1999/xlink" x="0px" y="0px"
	 viewBox="0 0 29.062 27.378" style="enable-background:new 0 0 29.062 27.378;" xml:space="preserve">
<style type="text/css">
	.st0{enable-background:new    ;}
	.st1{fill:#FFFFFF;}
	.st2{fill:none;stroke:#FFFFFF;stroke-linejoin:bevel;stroke-miterlimit:10;}
</style>
<g class="st0">
	<path class="st1" d="M22.643,23.393c0,0.703-0.109,1.36-0.324,1.972c-0.217,0.611-0.504,1.073-0.863,1.385
		c-0.359,0.311-0.766,0.467-1.219,0.467c-0.445,0-0.797-0.157-1.057-0.471S18.789,26,18.789,25.447c0-0.646,0.109-1.261,0.326-1.844
		c0.217-0.582,0.51-1.03,0.877-1.346c0.367-0.314,0.783-0.473,1.247-0.473c0.435,0,0.776,0.143,1.027,0.427
		C22.517,22.496,22.643,22.89,22.643,23.393z M21.77,23.396c0-0.297-0.051-0.524-0.154-0.681c-0.104-0.156-0.252-0.234-0.441-0.234
		c-0.262,0-0.499,0.13-0.713,0.388c-0.213,0.26-0.4,0.656-0.559,1.19c-0.158,0.535-0.238,1.021-0.238,1.458
		c0,0.31,0.057,0.554,0.169,0.73s0.271,0.266,0.476,0.266c0.276,0,0.516-0.145,0.721-0.435c0.203-0.289,0.378-0.693,0.523-1.212
		C21.697,24.348,21.77,23.857,21.77,23.396z"/>
	<path class="st1" d="M25.904,22.895c0,0.298-0.066,0.576-0.199,0.835s-0.309,0.456-0.525,0.591
		c-0.217,0.136-0.457,0.204-0.718,0.204c-0.241,0-0.444-0.048-0.61-0.142c-0.164-0.094-0.291-0.226-0.379-0.394
		s-0.131-0.361-0.131-0.578c0-0.281,0.065-0.551,0.197-0.81s0.308-0.457,0.527-0.596c0.22-0.138,0.467-0.206,0.743-0.206
		c0.339,0,0.606,0.098,0.802,0.293S25.904,22.555,25.904,22.895z M24.121,27.124H23.4l4.519-5.252h0.722L24.121,27.124z
		 M25.264,22.913c0-0.191-0.043-0.338-0.13-0.439c-0.087-0.104-0.202-0.154-0.346-0.154c-0.151,0-0.288,0.051-0.409,0.152
		c-0.12,0.101-0.217,0.238-0.289,0.412c-0.072,0.173-0.107,0.35-0.107,0.53s0.045,0.324,0.135,0.431
		c0.091,0.106,0.213,0.159,0.367,0.159c0.144,0,0.275-0.051,0.396-0.152s0.215-0.235,0.282-0.402S25.264,23.103,25.264,22.913z
		 M28.717,25.571c0,0.281-0.061,0.548-0.185,0.802c-0.123,0.254-0.294,0.455-0.513,0.603s-0.466,0.222-0.741,0.222
		c-0.242,0-0.446-0.048-0.612-0.143c-0.166-0.096-0.293-0.228-0.381-0.397s-0.131-0.358-0.131-0.566c0-0.285,0.067-0.56,0.203-0.821
		c0.135-0.263,0.313-0.461,0.532-0.596c0.22-0.134,0.464-0.201,0.732-0.201c0.345,0,0.612,0.099,0.806,0.297
		C28.621,24.967,28.717,25.234,28.717,25.571z M28.076,25.586c0-0.181-0.041-0.324-0.124-0.431c-0.083-0.105-0.2-0.159-0.352-0.159
		s-0.288,0.052-0.41,0.154s-0.219,0.241-0.29,0.417c-0.07,0.176-0.105,0.352-0.105,0.527s0.044,0.317,0.132,0.423
		s0.211,0.159,0.37,0.159c0.219,0,0.404-0.106,0.555-0.322C28.002,26.141,28.076,25.884,28.076,25.586z"/>
</g>
<polygon class="st2" points="0.952,15.511 9.445,24.004 19.598,13.851 22.331,13.461 12.691,3.723 "/>
<path class="st2" d="M12.65,10.967v-8.2c0-1.079-0.874-1.952-1.952-1.952S8.745,1.689,8.745,2.767v5.076"/>
</svg>
