<?xml version="1.0" encoding="utf-8"?>
<!-- Generator: Adobe Illustrator 20.1.0, SVG Export Plug-In . SVG Version: 6.00 Build 0)  -->
<svg version="1.1" id="Layer_1" xmlns="http://www.w3.org/2000/svg" xmlns:xlink="http://www.w3.org/1999/xlink" x="0px" y="0px"
	 viewBox="0 0 33.003 20.007" style="enable-background:new 0 0 33.003 20.007;" xml:space="preserve">
<style type="text/css">
	.st0{fill:#FFFFFF;}
</style>
<g id="Eye.svg">
	<g>
		<path class="st0" d="M32.78,9.706C32.483,9.309,25.419,0,16.501,0S0.52,9.309,0.223,9.706L0,10.004l0.223,0.298
			c0.297,0.396,7.36,9.705,16.278,9.705s15.982-9.309,16.278-9.705l0.223-0.298L32.78,9.706z M16.501,19.011
			c-7.549,0-13.955-7.415-15.244-9.007c1.287-1.593,7.688-9.008,15.244-9.008c7.549,0,13.955,7.416,15.244,9.008
			C30.458,11.597,24.057,19.011,16.501,19.011z M16.501,2.542c-4.124,0-7.478,3.347-7.478,7.462c0,4.114,3.354,7.461,7.478,7.461
			s7.478-3.347,7.478-7.461C23.98,5.889,20.625,2.542,16.501,2.542z M16.501,16.469c-3.573,0-6.48-2.899-6.48-6.464
			s2.907-6.465,6.48-6.465s6.48,2.9,6.48,6.465C22.981,13.569,20.074,16.469,16.501,16.469z"/>
	</g>
</g>
</svg>
