<?xml version="1.0" encoding="utf-8"?>
<!-- Generator: Adobe Illustrator 20.1.0, SVG Export Plug-In . SVG Version: 6.00 Build 0)  -->
<svg version="1.1" id="Layer_1" xmlns="http://www.w3.org/2000/svg" xmlns:xlink="http://www.w3.org/1999/xlink" x="0px" y="0px"
	 viewBox="0 0 19.3125 9.0453663" style="enable-background:new 0 0 19.3125 9.0453663;" xml:space="preserve">

<g>
	<path  style="fill-rule:evenodd;clip-rule:evenodd;fill:#ffffff;" d="M2.8393555,8.859375c-0.4023438,0-0.7617188-0.0898438-1.078125-0.2695313S1.1762695,8.1455078,0.9555664,7.7958984
		S0.5668945,7.0117188,0.4516602,6.4921875S0.2788086,5.3730469,0.2788086,4.6933594
		c0-1.4921875,0.2353516-2.6181641,0.7060547-3.3779297s1.1494141-1.1396484,2.0361328-1.1396484
		c1.6875,0,2.53125,1.4355469,2.53125,4.3066406c0,0.7109375-0.0605469,1.3378906-0.1816406,1.8808594
		s-0.2978516,1-0.5302734,1.3710938S4.3237305,8.3857422,3.987793,8.5751953S3.269043,8.859375,2.8393555,8.859375z
		 M2.9741211,0.8320313c-0.625,0-1.1015625,0.3164063-1.4296875,0.9492188S1.0522461,3.3652344,1.0522461,4.6347656
		c0,1.171875,0.1572266,2.0615234,0.4716797,2.6689453s0.7802734,0.9111328,1.3974609,0.9111328
		c0.3007813,0,0.5673828-0.0791016,0.7998047-0.2373047s0.4267578-0.390625,0.5830078-0.6972656
		S4.5786133,6.59375,4.6586914,6.140625s0.1201172-0.9746094,0.1201172-1.5644531
		C4.7788086,2.0800781,4.1772461,0.8320313,2.9741211,0.8320313z"/>
	<path  style="fill-rule:evenodd;clip-rule:evenodd;fill:#ffffff;" d="M6.7919922,8.8359375c-0.15625,0-0.2890625-0.0546875-0.3984375-0.1640625S6.2294922,8.4296875,6.2294922,8.2734375
		c0-0.1601563,0.0537109-0.2949219,0.1611328-0.4042969s0.2412109-0.1640625,0.4013672-0.1640625
		c0.078125,0,0.1513672,0.0146484,0.2197266,0.0439453s0.1279297,0.0683594,0.1787109,0.1171875
		s0.0917969,0.1083984,0.1230469,0.1787109s0.046875,0.1464844,0.046875,0.2285156
		c0,0.078125-0.015625,0.1513672-0.046875,0.2197266S7.2412109,8.6210938,7.1904297,8.671875
		S7.0800781,8.7626953,7.0117188,8.7919922S6.8701172,8.8359375,6.7919922,8.8359375z"/>
	<path  style="fill-rule:evenodd;clip-rule:evenodd;fill:#ffffff;" d="M10.5922852,8.859375c-0.4023438,0-0.7617188-0.0898438-1.078125-0.2695313S8.9291992,8.1455078,8.7084961,7.7958984
		S8.3198242,7.0117188,8.2045898,6.4921875S8.0317383,5.3730469,8.0317383,4.6933594
		c0-1.4921875,0.2353516-2.6181641,0.7060547-3.3779297s1.1494141-1.1396484,2.0361328-1.1396484
		c1.6870117,0,2.5307617,1.4355469,2.5307617,4.3066406c0,0.7109375-0.0605469,1.3378906-0.1816406,1.8808594
		s-0.296875,1-0.5292969,1.3710938s-0.5175781,0.6513672-0.8535156,0.8408203S11.0214844,8.859375,10.5922852,8.859375z
		 M10.7270508,0.8320313c-0.625,0-1.1015625,0.3164063-1.4296875,0.9492188S8.8051758,3.3652344,8.8051758,4.6347656
		c0,1.171875,0.1572266,2.0615234,0.4716797,2.6689453s0.7802734,0.9111328,1.3974609,0.9111328
		c0.3007813,0,0.5678711-0.0791016,0.800293-0.2373047s0.4257813-0.390625,0.5820313-0.6972656
		S12.3320313,6.59375,12.4121094,6.140625S12.53125,5.1660156,12.53125,4.5761719
		C12.53125,2.0800781,11.9296875,0.8320313,10.7270508,0.8320313z"/>
	<path  style="fill-rule:evenodd;clip-rule:evenodd;fill:#ffffff;" d="M16.3144531,8.859375c-0.4023438,0-0.7617188-0.0898438-1.078125-0.2695313s-0.5849609-0.4443359-0.8056641-0.7939453
		s-0.3886719-0.7841797-0.5039063-1.3037109s-0.1728516-1.1191406-0.1728516-1.7988281
		c0-1.4921875,0.2353516-2.6181641,0.7060547-3.3779297s1.1494141-1.1396484,2.0361328-1.1396484
		c1.6875,0,2.53125,1.4355469,2.53125,4.3066406c0,0.7109375-0.0605469,1.3378906-0.1816406,1.8808594
		s-0.2978516,1-0.5302734,1.3710938s-0.5166016,0.6513672-0.8525391,0.8408203S16.7441406,8.859375,16.3144531,8.859375z
		 M16.4492188,0.8320313c-0.625,0-1.1015625,0.3164063-1.4296875,0.9492188s-0.4921875,1.5839844-0.4921875,2.8535156
		c0,1.171875,0.1572266,2.0615234,0.4716797,2.6689453s0.7802734,0.9111328,1.3974609,0.9111328
		c0.3007813,0,0.5673828-0.0791016,0.7998047-0.2373047s0.4267578-0.390625,0.5830078-0.6972656
		S18.0537109,6.59375,18.1337891,6.140625s0.1201172-0.9746094,0.1201172-1.5644531
		C18.2539063,2.0800781,17.6523438,0.8320313,16.4492188,0.8320313z"/>
</g>
</svg>
