<?xml version="1.0" encoding="utf-8"?>
<!-- Generator: Adobe Illustrator 20.1.0, SVG Export Plug-In . SVG Version: 6.00 Build 0)  -->
<svg version="1.0" id="Layer_1" xmlns="http://www.w3.org/2000/svg" xmlns:xlink="http://www.w3.org/1999/xlink" x="0px" y="0px"
	 viewBox="0 0 29.0620003 27.3780003" style="enable-background:new 0 0 29.0620003 27.3780003;" xml:space="preserve">
<style type="text/css">
	.st0{fill:#ffffff;}
</style>
<g id="Paintbrush.svg">
	<g>
		<path class="st0" d="M28.9109993,0.269l-0.1509991,0.016c-0.6679993-0.155-4.5160007-0.931-7.5189991,0.997
			c-2.2210007,1.426-2.7520008,3.52-2.8579998,4.789l-3.1689997,3.1020002C-0.919,26.1599998-0.274,26.7910004,0.153,27.2080002
			l0.224,0.1700001h0.209c1.299,0,10.4709997-8.0769997,17.9370003-14.8509998l2.8789997-2.8140001
			C22.0430012,9.71,26.0390015,9.4990005,26.8880005,4.7250004c0.3920002-3.062,2.1079998-3.4660001,2.1749992-3.4809999
			L28.9109993,0.269z M1.725,25.6720009c1.864-2.4589996,7.0800004-8.2779999,13.8719997-15.4499998l1.9150009,1.8730001
			C11.1730003,17.8490009,4.48,23.6690006,1.725,25.6720009z M18.2399998,11.4099998l-1.9429989-1.8999996l2.4389992-2.3870001
			l0.0629997-0.0079999l1.9160004,1.8740001L18.2399998,11.4099998z M25.8899994,4.579
			c-0.6040001,3.395-3.0039997,4.0089993-4.0440006,4.1199994l-2.4680004-2.415c0.0610008-1.04,0.4589996-2.9189999,2.4169998-4.177
			c1.9029999-1.222,4.2840004-1.192,5.6630001-1.036C26.8050003,1.683,26.1229992,2.7449999,25.8899994,4.579z"/>
	</g>
</g>
<g>
	<path class="st0" d="M17.7177734,27.1035156h-0.8359375l0.7070313-3.3330078
		c0.0683594-0.3076172,0.1621094-0.6689453,0.2792969-1.0839844h-0.0234375
		c-0.1230469,0.2763672-0.3203125,0.5927734-0.5878906,0.9492188l-1.4887695,1.9951172h-0.5634766l-0.6005859-1.9296875
		c-0.0439453-0.1337891-0.0839844-0.2988281-0.1206055-0.4941406s-0.0576172-0.3691406-0.0625-0.5205078h-0.0253906
		c-0.0854492,0.5400391-0.1489258,0.9023438-0.1904297,1.0878906l-0.7104492,3.3291016h-0.8276367l1.1132813-5.2519531h1.0693359
		l0.6845703,2.1611328c0.0732422,0.2314453,0.1162109,0.4501953,0.128418,0.6552734h0.0175781
		c0.1347656-0.2929688,0.2734375-0.5341797,0.4145508-0.7246094l1.5722656-2.0917969h1.1679688L17.7177734,27.1035156z"/>
	<path class="st0" d="M20.9775391,27.1035156h-0.9121094l0.4101563-1.9296875l-0.9628906-3.3222656h0.9736328l0.5351563,2.2089844
		l0.0361328,0.1972656l0.0185547,0.1689453h0.0146484c0.0751953-0.1660156,0.1376953-0.2851563,0.1865234-0.3554688
		l1.5126953-2.2197266h1.0175781l-2.4238281,3.3037109L20.9775391,27.1035156z"/>
	<path class="st0" d="M28.1152344,23.1552734c0-0.2070313-0.0664063-0.3710938-0.1982422-0.4921875
		s-0.3222656-0.1816406-0.5712891-0.1816406c-0.2412109,0-0.4804688,0.0488281-0.7177734,0.1464844
		c-0.2363281,0.0976563-0.4541016,0.2236328-0.6513672,0.3779297l0.1904297-0.8642578
		c0.3808594-0.2519531,0.8505859-0.3779297,1.4091797-0.3779297c0.4472656,0,0.7978516,0.1103516,1.0517578,0.3320313
		c0.2539063,0.2207031,0.3808594,0.5214844,0.3808594,0.9023438c0,0.2861328-0.0478516,0.5400391-0.1435547,0.7617188
		c-0.0947266,0.2226563-0.2421875,0.4306641-0.4414063,0.6259766c-0.1982422,0.1953125-0.5419922,0.4462891-1.0302734,0.7509766
		c-0.4882813,0.3007813-0.8212891,0.5371094-1,0.7089844c-0.1777344,0.171875-0.2841797,0.3417969-0.3183594,0.5107422h2.3251953
		l-0.1572266,0.7470703h-3.2851563l0.0693359-0.3261719c0.0566406-0.2753906,0.1523438-0.5244141,0.2880859-0.7451172
		c0.1347656-0.2207031,0.3134766-0.4326172,0.5361328-0.6357422c0.2216797-0.2021484,0.5644531-0.4492188,1.0253906-0.7392578
		c0.3222656-0.203125,0.5712891-0.3808594,0.7470703-0.5351563c0.1757813-0.1533203,0.3017578-0.3037109,0.3769531-0.4501953
		C28.0771484,23.5253906,28.1152344,23.3535156,28.1152344,23.1552734z"/>
</g>
</svg>
