<?xml version="1.0" encoding="utf-8"?>
<!-- Generator: Adobe Illustrator 20.1.0, SVG Export Plug-In . SVG Version: 6.00 Build 0)  -->
<svg version="1.1" id="Layer_1" xmlns="http://www.w3.org/2000/svg" xmlns:xlink="http://www.w3.org/1999/xlink" x="0px" y="0px"
	 viewBox="0 0 19.313 9.045" style="enable-background:new 0 0 19.313 9.045;" xml:space="preserve">
<style type="text/css">
	.st0{fill:#FFFFFF;}
</style>
<g>
	<path class="st0" d="M9.708,8.933c-0.402,0-0.762-0.09-1.078-0.27S8.044,8.219,7.824,7.869S7.435,7.085,7.32,6.565
		s-0.173-1.12-0.173-1.799c0-1.492,0.235-2.618,0.706-3.378s1.149-1.14,2.036-1.14c1.688,0,2.532,1.436,2.532,4.307
		c0,0.711-0.061,1.338-0.182,1.881c-0.121,0.543-0.299,1-0.531,1.371s-0.516,0.651-0.852,0.841S10.138,8.933,9.708,8.933z
		 M9.842,0.905c-0.625,0-1.102,0.316-1.43,0.949S7.92,3.438,7.92,4.708c0,1.172,0.157,2.062,0.472,2.669s0.78,0.911,1.397,0.911
		c0.301,0,0.567-0.079,0.799-0.237s0.428-0.391,0.584-0.697s0.273-0.687,0.354-1.14c0.08-0.454,0.121-0.975,0.121-1.565
		C11.647,2.153,11.046,0.905,9.842,0.905z"/>
</g>
</svg>
