<svg xmlns="http://www.w3.org/2000/svg" xmlns:xlink="http://www.w3.org/1999/xlink" preserveAspectRatio="xMidYMid" width="48" height="45.875" viewBox="0 0 48 45.875">
  <defs>
    <style>
      .cls-1 {
        fill: #ffffff;
        fill-rule: evenodd;
      }
    </style>
  </defs>
  <path d="M48.000,24.465 C48.000,32.936 43.600,41.269 36.789,45.697 C36.326,45.996 35.707,45.867 35.405,45.405 C35.104,44.944 35.234,44.326 35.697,44.026 C38.523,42.189 40.888,39.610 42.640,36.621 L41.397,35.685 C40.957,35.353 40.869,34.728 41.202,34.289 C41.534,33.849 42.161,33.760 42.603,34.094 L43.591,34.838 C45.063,31.770 45.917,28.366 45.985,24.919 L43.864,24.919 C43.312,24.919 42.864,24.473 42.864,23.922 C42.864,23.370 43.312,22.924 43.864,22.924 L45.924,22.924 C45.713,19.770 44.856,16.800 43.497,14.139 L42.563,14.774 C42.391,14.891 42.195,14.947 42.001,14.947 C41.681,14.947 41.367,14.796 41.174,14.512 C40.863,14.056 40.981,13.436 41.437,13.127 L42.506,12.400 C40.734,9.582 38.368,7.188 35.582,5.414 L34.830,6.529 C34.637,6.816 34.321,6.971 33.999,6.971 C33.807,6.971 33.613,6.916 33.442,6.801 C32.984,6.493 32.862,5.874 33.170,5.417 L33.844,4.417 C31.160,3.036 28.173,2.181 25.000,2.035 L25.000,3.979 C25.000,4.530 24.552,4.976 24.000,4.976 C23.448,4.976 23.000,4.530 23.000,3.979 L23.000,2.037 C19.828,2.183 16.841,3.038 14.156,4.418 L14.830,5.417 C15.138,5.874 15.016,6.493 14.558,6.801 C14.387,6.916 14.193,6.971 14.001,6.971 C13.679,6.971 13.363,6.816 13.170,6.529 L12.419,5.415 C9.632,7.188 7.266,9.582 5.494,12.400 L6.563,13.127 C7.019,13.436 7.137,14.056 6.826,14.512 C6.633,14.796 6.319,14.947 5.999,14.947 C5.805,14.947 5.609,14.891 5.437,14.774 L4.502,14.139 C3.142,16.799 2.285,19.770 2.074,22.924 L4.136,22.924 C4.688,22.924 5.136,23.370 5.136,23.922 C5.136,24.473 4.688,24.919 4.136,24.919 L2.015,24.919 C2.083,28.378 2.933,31.784 4.400,34.845 L5.397,34.094 C5.839,33.761 6.466,33.850 6.798,34.289 C7.131,34.728 7.044,35.353 6.602,35.685 L5.352,36.627 C7.114,39.629 9.495,42.205 12.344,44.021 C12.810,44.318 12.946,44.934 12.648,45.399 C12.457,45.696 12.135,45.858 11.805,45.858 C11.621,45.858 11.434,45.808 11.267,45.701 C4.317,41.271 0.000,33.134 0.000,24.465 C0.000,24.318 0.019,24.175 0.022,24.029 C0.018,23.992 0.000,23.960 0.000,23.922 C0.000,23.859 0.025,23.804 0.036,23.745 C0.154,19.646 1.275,15.808 3.141,12.455 C3.168,12.334 3.214,12.215 3.288,12.107 C3.316,12.066 3.357,12.043 3.390,12.008 C5.494,8.406 8.474,5.395 12.034,3.290 C12.068,3.261 12.089,3.222 12.127,3.196 C12.187,3.156 12.254,3.143 12.319,3.118 C15.778,1.137 19.756,-0.009 24.000,-0.009 C28.244,-0.009 32.222,1.137 35.681,3.117 C35.745,3.143 35.813,3.156 35.873,3.196 C35.911,3.222 35.932,3.261 35.966,3.290 C39.526,5.395 42.506,8.406 44.610,12.008 C44.643,12.044 44.684,12.066 44.712,12.107 C44.786,12.215 44.832,12.334 44.859,12.454 C46.725,15.808 47.846,19.646 47.964,23.745 C47.975,23.804 48.000,23.859 48.000,23.922 C48.000,23.960 47.982,23.992 47.978,24.029 C47.981,24.175 48.000,24.318 48.000,24.465 ZM24.000,21.927 C24.557,21.927 25.067,22.116 25.483,22.425 L34.489,17.082 C34.963,16.798 35.577,16.956 35.859,17.429 C36.142,17.902 35.986,18.514 35.511,18.796 L26.473,24.158 C26.483,24.245 26.500,24.330 26.500,24.420 C26.500,25.795 25.378,26.913 24.000,26.913 C22.622,26.913 21.500,25.795 21.500,24.420 C21.500,23.045 22.622,21.927 24.000,21.927 Z" class="cls-1"/>
</svg>
