<?xml version="1.0" encoding="utf-8"?>
<!-- Generator: Adobe Illustrator 17.0.2, SVG Export Plug-In . SVG Version: 6.00 Build 0)  -->
<!DOCTYPE svg PUBLIC "-//W3C//DTD SVG 1.1//EN" "http://www.w3.org/Graphics/SVG/1.1/DTD/svg11.dtd">
<svg version="1.1" id="Layer_1" xmlns="http://www.w3.org/2000/svg" xmlns:xlink="http://www.w3.org/1999/xlink" x="0px" y="0px"
	 width="27.003px" height="27.003px" viewBox="0 0 27.003 27.003" style="enable-background:new 0 0 27.003 27.003;"
	 xml:space="preserve">
<g id="Settings_-_Line.svg">
	<g>
		<path style="fill-rule:evenodd;clip-rule:evenodd;fill:#ffffff;" d="M13.502,8.808c-2.588,0-4.694,2.105-4.694,4.694
			c0,2.587,2.105,4.693,4.694,4.693c2.587,0,4.693-2.105,4.693-4.693C18.195,10.913,16.089,8.808,13.502,8.808z M13.502,17.195
			c-2.037,0-3.695-1.657-3.695-3.694c0-2.037,1.658-3.695,3.695-3.695s3.694,1.658,3.694,3.695
			C17.196,15.539,15.539,17.195,13.502,17.195z M25.782,10.458L23.7,10.106c-0.162-0.485-0.358-0.959-0.586-1.415l1.223-1.721
			c0.403-0.566,0.333-1.394-0.158-1.885l-2.26-2.26c-0.474-0.474-1.337-0.547-1.885-0.158l-1.721,1.223
			c-0.455-0.228-0.929-0.424-1.415-0.586l-0.352-2.082C16.429,0.536,15.796,0,15.1,0h-3.198c-0.693,0-1.328,0.536-1.444,1.221
			l-0.352,2.082C9.621,3.464,9.147,3.661,8.691,3.889L6.97,2.666C6.422,2.277,5.559,2.35,5.085,2.824l-2.26,2.26
			C2.333,5.576,2.263,6.404,2.666,6.97l1.223,1.721c-0.228,0.456-0.424,0.93-0.586,1.415L1.22,10.458
			C0.536,10.574,0,11.209,0,11.903V15.1c0,0.695,0.536,1.329,1.221,1.444l2.081,0.352c0.162,0.486,0.359,0.96,0.587,1.415
			l-1.223,1.722c-0.403,0.566-0.333,1.394,0.158,1.885l2.26,2.26c0.474,0.474,1.337,0.547,1.885,0.158l1.721-1.224
			c0.459,0.23,0.933,0.426,1.415,0.587l0.352,2.082c0.116,0.685,0.751,1.221,1.444,1.221H15.1c0.695,0,1.329-0.537,1.444-1.222
			l0.352-2.081c0.484-0.161,0.958-0.357,1.415-0.587l1.722,1.225c0.546,0.387,1.41,0.315,1.884-0.159l2.26-2.26
			c0.491-0.491,0.561-1.319,0.158-1.886l-1.223-1.721c0.228-0.456,0.425-0.929,0.587-1.415l2.081-0.352
			c0.685-0.115,1.221-0.749,1.221-1.444v-3.197C27.003,11.209,26.466,10.574,25.782,10.458z M26.004,15.1
			c0,0.207-0.184,0.425-0.388,0.459l-2.689,0.454l-0.089,0.297c-0.188,0.626-0.441,1.234-0.749,1.805l-0.147,0.273l1.581,2.222
			c0.119,0.169,0.096,0.455-0.051,0.602l-2.261,2.26c-0.138,0.139-0.441,0.162-0.6,0.051l-2.223-1.58l-0.273,0.146
			c-0.576,0.309-1.184,0.561-1.805,0.748l-0.297,0.089l-0.454,2.689c-0.034,0.204-0.253,0.389-0.459,0.389h-3.198
			c-0.206,0-0.425-0.185-0.459-0.389l-0.454-2.689l-0.297-0.089c-0.619-0.186-1.227-0.438-1.805-0.748l-0.273-0.146l-2.222,1.579
			c-0.161,0.113-0.462,0.089-0.601-0.05l-2.261-2.26c-0.146-0.146-0.17-0.433-0.051-0.601l1.581-2.223l-0.147-0.273
			c-0.308-0.571-0.561-1.179-0.749-1.805l-0.089-0.297l-2.689-0.454c-0.204-0.034-0.388-0.253-0.388-0.459v-3.197
			c0-0.207,0.185-0.426,0.388-0.46l2.689-0.454l0.089-0.296c0.188-0.625,0.441-1.233,0.749-1.805L5.06,8.614L3.479,6.39
			c-0.119-0.168-0.096-0.453,0.051-0.6l2.261-2.26c0.139-0.138,0.441-0.164,0.6-0.051L8.614,5.06l0.273-0.147
			c0.573-0.309,1.181-0.561,1.804-0.748l0.297-0.089l0.454-2.689c0.034-0.204,0.254-0.389,0.459-0.389H15.1
			c0.207,0,0.425,0.184,0.459,0.388l0.454,2.69l0.297,0.089c0.625,0.188,1.233,0.44,1.804,0.748l0.273,0.147l2.224-1.581
			c0.159-0.113,0.461-0.088,0.6,0.051l2.261,2.26c0.146,0.146,0.17,0.432,0.051,0.6l-1.581,2.223l0.147,0.273
			c0.308,0.572,0.561,1.18,0.749,1.805l0.089,0.296l2.688,0.454c0.204,0.034,0.389,0.254,0.389,0.46V15.1z"/>
	</g>
</g>
<g>
</g>
<g>
</g>
<g>
</g>
<g>
</g>
<g>
</g>
<g>
</g>
<g>
</g>
<g>
</g>
<g>
</g>
<g>
</g>
<g>
</g>
<g>
</g>
<g>
</g>
<g>
</g>
<g>
</g>
</svg>
