<?xml version="1.0" encoding="iso-8859-1"?>
<!-- Generator: Adobe Illustrator 17.0.2, SVG Export Plug-In . SVG Version: 6.00 Build 0)  -->
<!DOCTYPE svg PUBLIC "-//W3C//DTD SVG 1.1//EN" "http://www.w3.org/Graphics/SVG/1.1/DTD/svg11.dtd">
<svg version="1.1" id="Layer_1" xmlns="http://www.w3.org/2000/svg" xmlns:xlink="http://www.w3.org/1999/xlink" x="0px" y="0px"
	 width="33.004px" height="28.976px" viewBox="0 0 33.004 28.976" style="enable-background:new 0 0 33.004 28.976;"
	 xml:space="preserve">
<g id="Warning.svg">
	<g>
		<path style="fill-rule:evenodd;clip-rule:evenodd;fill:#ffffff;" d="M16.502,0L0,28.976h33.004L16.502,0z M16.502,2.024
			l14.773,25.941H1.729L16.502,2.024z M16.501,22.122c-1.071,0-1.879,0.85-1.879,1.976c0,1.126,0.808,1.976,1.879,1.976
			c1.089,0,1.879-0.831,1.879-1.976C18.38,22.935,17.607,22.122,16.501,22.122z M16.501,25.063c-0.518,0-0.881-0.396-0.881-0.964
			c0-0.568,0.363-0.965,0.881-0.965c0.65,0,0.881,0.498,0.881,0.965C17.382,24.543,17.151,25.063,16.501,25.063z M17.781,21.213
			l0.357-12.396h-3.273l0.357,12.396H17.781z M17.11,9.829l-0.298,10.372H16.19L15.892,9.829H17.11z"/>
	</g>
</g>
<g>
</g>
<g>
</g>
<g>
</g>
<g>
</g>
<g>
</g>
<g>
</g>
<g>
</g>
<g>
</g>
<g>
</g>
<g>
</g>
<g>
</g>
<g>
</g>
<g>
</g>
<g>
</g>
<g>
</g>
</svg>
